<?xml version="1.0" encoding="UTF-8" standalone="no"?>
<svg
   xmlns:dc="http://purl.org/dc/elements/1.1/"
   xmlns:cc="http://creativecommons.org/ns#"
   xmlns:rdf="http://www.w3.org/1999/02/22-rdf-syntax-ns#"
   xmlns:svg="http://www.w3.org/2000/svg"
   xmlns="http://www.w3.org/2000/svg"
   viewBox="0 0 720 720"
   height="720"
   width="720"
   id="svg10"
   version="1.1">
  <metadata
     id="metadata16">
    <rdf:RDF>
      <cc:Work
         rdf:about="">
        <dc:format>image/svg+xml</dc:format>
        <dc:type
           rdf:resource="http://purl.org/dc/dcmitype/StillImage" />
        <dc:title></dc:title>
      </cc:Work>
    </rdf:RDF>
  </metadata>
  <defs
     id="defs14" />
  <g
     id="g18">
    <g
       transform="matrix(0.88749026,0,0,0.88749026,39.835284,35.772367)"
       id="g22">
      <path
         id="path24"
         d="M -37.304062,368.95652 V -19.006268 H 361.79776 760.89959 l -0.27946,387.691128 -0.27946,387.69116 -398.82237,0.27166 -398.822362,0.27166 z M 317.68768,711.54146 c 11.34044,-5.42706 20.61449,-14.25764 11.39521,-10.85031 -4.54547,1.67995 -13.13298,1.34948 -16.02043,-0.61653 -2.30025,-1.56619 -2.47153,-2.29753 -1.83508,-7.83487 0.38607,-3.35909 2.61849,-11.21361 4.96089,-17.45449 2.34243,-6.24088 5.34303,-15.28746 6.66803,-20.1035 l 2.40908,-8.75643 7.45318,-1.36707 c 5.38824,-0.98831 9.13977,-1.06914 13.54071,-0.29177 3.34812,0.59143 12.84109,1.15585 21.09545,1.25429 16.56682,0.19757 17.77496,0.67586 17.8004,7.04708 0.0212,5.318 3.00341,14.72418 5.48106,17.2879 1.55683,1.61092 2.28764,3.81211 2.28764,6.89032 0,4.18997 0.22041,4.52322 2.99173,4.52322 2.7217,0 2.81398,0.12635 1.02233,1.39988 -1.86097,1.32278 -1.86948,1.7748 -0.15444,8.20861 1.68633,6.3261 1.68382,7.00331 -0.0352,9.55366 -1.76981,2.62567 -2.19495,2.71843 -9.78542,2.13492 -4.36438,-0.3355 -10.06137,-1.35261 -12.65996,-2.26022 -5.4557,-1.90553 -6.02018,-0.85207 -1.66756,3.11212 8.13726,7.41107 20.52615,12.43253 30.67337,12.43253 2.39758,0 8.86949,-1.50538 14.38204,-3.34531 10.80593,-3.6067 13.19423,-3.59817 21.01511,0.075 5.44842,2.55892 8.33855,2.68936 15.91735,0.71845 7.82071,-2.03382 16.62907,-6.56735 24.72752,-12.72683 l 6.94034,-5.27865 4.73252,3.3495 c 21.67887,15.34346 39.43696,18.99369 52.98363,10.89098 l 5.97403,-3.57326 8.49088,3.77295 c 10.99019,4.88353 20.67436,6.64121 28.08205,5.09689 8.33634,-1.73792 7.8363,-1.41839 25.36793,-16.21066 5.87136,-4.95393 5.42387,-6.53969 -0.95303,-3.37723 -8.19698,4.06507 -16.23698,2.4807 -23.62926,-4.65642 -3.5028,-3.38189 -3.98827,-4.47339 -3.75756,-8.44816 0.14573,-2.51048 -0.12086,-5.87213 -0.59236,-7.47033 -0.51778,-1.755 -0.38444,-3.3655 0.33672,-4.06651 0.85089,-0.82715 0.80988,-1.98026 -0.14273,-4.01265 -0.94173,-2.00918 -0.99108,-3.25682 -0.16705,-4.222 0.68562,-0.80306 1.048,-5.56082 0.87563,-11.49628 -0.16174,-5.56942 -0.17305,-18.02863 -0.0252,-27.68714 l 0.26895,-17.5609 13.06247,0.0214 c 14.31004,0.0234 26.79731,1.42884 31.28866,3.5214 2.1622,1.0074 3.16574,2.60759 4.00262,6.38237 0.61429,2.77084 1.47308,5.38103 1.90843,5.80044 1.36682,1.31679 0.98196,37.42209 -0.41634,39.05993 -0.92773,1.08664 -0.93338,2.16583 -0.0216,4.11123 0.7567,1.61443 0.97297,5.37976 0.55745,9.70529 -0.52229,5.43702 -0.29589,7.50116 0.98138,8.9474 2.8602,3.23859 3.38899,4.61779 1.50037,3.91329 -1.35757,-0.50641 -1.7253,0.16589 -1.7253,3.15424 0,3.19992 0.89403,4.5792 5.67873,8.761 3.12332,2.72974 6.16578,4.96317 6.76104,4.96317 0.59526,0 3.16755,1.6415 5.71619,3.64778 7.91651,6.23184 11.58695,7.57631 20.75355,7.60199 9.3703,0.0263 21.62562,-3.33938 35.01854,-9.61702 7.75286,-3.63397 15.00796,-8.67837 15.00796,-10.43486 0,-0.50817 -1.62587,-0.98481 -3.61303,-1.0592 -3.18786,-0.11934 -3.04591,-0.22471 1.20619,-0.89537 4.32723,-0.68249 6.78853,-2.35402 6.83661,-4.6429 0.0224,-1.062 -0.36385,-1.02852 -4.07948,0.35366 -4.86192,1.80858 -11.87427,1.3906 -16.6836,-0.99447 -4.34582,-2.15518 -4.38967,-2.24037 -5.74816,-11.16694 -0.75292,-4.94736 -2.13801,-11.64275 -3.07797,-14.87866 -1.18117,-4.06622 -1.44561,-7.40415 -0.85618,-10.80672 1.34441,-7.76072 1.39947,-8.42066 2.00365,-24.01756 0.5235,-13.51421 0.38695,-15.00058 -1.60416,-17.46122 -1.19701,-1.47926 -2.17637,-3.24713 -2.17637,-3.92857 0,-4.19826 -12.17018,-11.47993 -27.19961,-16.27411 l -7.74487,-2.47049 5.52147,-4.77555 c 3.0368,-2.62656 7.34346,-5.69591 9.57034,-6.82079 4.86605,-2.45802 13.01533,-11.27411 17.00011,-18.39113 3.59399,-6.41905 5.76767,-16.73871 3.96943,-18.84499 -0.9097,-1.06553 -0.92295,-2.63654 -0.0488,-5.79212 4.80313,-17.33966 -19.17162,-41.53937 -49.66549,-50.13152 -8.03664,-2.26446 -10.61548,-2.42651 -36.08992,-2.26777 -30.01724,0.18703 -31.75718,0.44785 -50.02508,7.49877 l -9.64623,3.72318 -7.53892,-4.02826 c -6.66311,-3.56028 -8.40654,-4.02055 -15.00704,-3.96179 -5.20453,0.0464 -9.00561,0.76902 -12.54072,2.38434 -2.78996,1.27482 -5.79213,2.31787 -6.67151,2.31787 -4.03644,0 -25.10615,12.74453 -25.10615,15.18607 0,0.42659 4.12718,-0.63705 9.17153,-2.36366 9.82909,-3.36432 13.38877,-3.37549 20.5316,-0.0645 l 3.91008,1.81256 -0.71812,8.65461 c -0.91375,11.01246 -0.93864,28.65521 -0.0649,46.0528 0.85039,16.93428 0.16597,18.76761 -10.45841,28.01436 -4.35578,3.79098 -7.9196,7.16545 -7.9196,7.49881 0,0.33337 3.93608,3.37343 8.74685,6.75569 l 8.74687,6.14958 0.78926,10.82199 c 0.4341,5.95209 0.49052,11.29191 0.12536,11.86624 -0.84811,1.33397 -0.87521,53.31636 -0.0294,56.5919 0.43694,1.69232 -0.33497,3.69852 -2.47995,6.44541 -3.03718,3.88947 -3.29894,3.98929 -10.5636,4.0277 -4.0971,0.0217 -9.96409,-0.48491 -13.03776,-1.12571 -5.39596,-1.12492 -5.76273,-1.04344 -10.64458,2.36459 -8.83473,6.16755 -22.30981,5.44909 -25.83539,-1.37748 -0.71686,-1.38804 -3.60739,-11.27716 -6.42339,-21.97581 -6.96142,-26.44808 -11.24036,-42.4181 -14.54222,-54.2749 -1.96457,-7.05463 -2.46265,-10.53589 -1.70453,-11.91296 0.58913,-1.07008 3.89691,-4.5435 7.35061,-7.71869 3.4537,-3.1752 6.03475,-6.39302 5.73565,-7.15071 -0.29911,-0.75768 -3.45706,-2.75486 -7.01767,-4.43817 -7.9673,-3.76659 -15.33964,-10.81647 -18.31993,-17.51862 -2.77459,-6.23957 -7.79462,-25.30522 -10.36476,-39.36452 -1.80734,-9.88653 -2.82606,-12.04155 -4.46997,-9.45587 -1.00616,1.58257 -2.77926,1.31825 -2.77926,-0.4143 0,-0.82223 1.00054,-1.74931 2.2234,-2.06017 2.7817,-0.70713 2.78465,-2.64901 0.0182,-12.05255 -1.99585,-6.78434 -2.0417,-7.67135 -0.48318,-9.34543 3.727,-4.00337 17.75319,-3.346 23.97205,1.12348 8.45886,6.07935 2.20712,-4.32537 -6.57803,-10.94778 -8.67185,-6.53692 -13.35446,-8.44944 -20.68771,-8.44944 -7.36569,0 -13.36847,2.08882 -22.21517,7.73031 -3.58543,2.28639 -6.9827,4.15709 -7.54952,4.15709 -0.5668,0 -3.8866,-1.44492 -7.37734,-3.21095 -7.8559,-3.97445 -22.0585,-7.29446 -24.58293,-5.74653 -1.18785,0.72836 -2.37929,0.70639 -3.65385,-0.0673 -2.65362,-1.61095 -16.69453,1.95014 -23.13376,5.86726 -2.75145,1.67376 -7.0037,5.08036 -9.44944,7.5702 -4.02461,4.0972 -4.18293,4.4591 -1.66755,3.81187 6.52023,-1.67773 13.40963,-1.9748 16.54263,-0.71329 3.68652,1.48439 6.27174,6.35177 5.33322,10.04125 -5.05042,19.85409 -8.85396,31.55965 -15.68957,48.28548 -1.56025,3.81771 -2.6063,7.16538 -2.32456,7.43925 0.28174,0.27388 -0.47189,1.71418 -1.67473,3.20066 -1.20284,1.48649 -2.18699,3.26788 -2.18699,3.95866 0,2.20102 -8.05564,8.8919 -17.04057,14.15358 -4.78655,2.80307 -8.94503,5.71008 -9.24108,6.46001 -0.29603,0.74995 2.28751,3.96143 5.74122,7.13662 8.29752,7.62843 8.61433,8.33336 6.57623,14.63246 -0.93256,2.88227 -1.88676,6.47351 -2.12045,7.98053 -0.23367,1.50702 -2.46327,7.24289 -4.95465,12.74637 -2.4914,5.50345 -4.5298,10.95514 -4.5298,12.11487 0,1.15971 -1.04638,5.04775 -2.32527,8.64012 -1.27891,3.59236 -2.05313,7.221 -1.7205,8.06364 0.33264,0.84265 -1.8727,5.89759 -4.90076,11.23319 -3.02807,5.3356 -5.50744,10.58392 -5.50973,11.66293 -0.009,4.34283 -6.80776,12.54693 -12.01899,14.50379 -3.5999,1.35178 -15.84184,1.20616 -20.107,-0.23919 -4.47551,-1.51662 -5.36509,-0.6961 -3.01899,2.78455 3.94632,5.85475 18.7987,10.82894 32.36989,10.84094 7.40276,0.007 10.02004,-0.49834 15.6134,-3.01195 l 6.71981,-3.01983 5.13546,2.79017 c 10.57219,5.74398 20.06867,5.91448 31.25503,0.56114 z m 129.08815,-7.00335 c -1.7252,-1.26846 -1.81043,-1.59353 -0.42496,-1.62101 0.95315,-0.0189 2.70408,0.67963 3.89095,1.55228 1.7252,1.26847 1.81043,1.59353 0.42496,1.62101 -0.95315,0.0189 -2.70408,-0.67963 -3.89095,-1.55228 z m -22.01769,-9.76813 c -2.18135,-2.12047 -2.27407,-2.69939 -0.42879,-2.67741 2.71917,0.0324 4.79268,1.97066 3.47669,3.24993 -0.89816,0.87308 -1.71949,0.7188 -3.0479,-0.57252 z m -8.48861,-4.85531 c -1.34157,-0.84279 -1.16576,-1.05081 0.89939,-1.06412 1.43139,-0.01 2.26298,0.46151 1.87985,1.06412 -0.8262,1.29951 -0.71066,1.29951 -2.77924,0 z m 245.12984,-0.58786 -6.6702,-1.43296 6.11434,0.59069 c 3.3629,0.32488 6.86476,1.00794 7.78191,1.51789 2.14228,1.19115 0.94038,1.07877 -7.22605,-0.67562 z m 14.73002,0.90588 c 1.37573,-0.2576 3.62692,-0.2576 5.00265,0 1.37573,0.25757 0.25014,0.46833 -2.50132,0.46833 -2.75146,0 -3.87705,-0.21076 -2.50133,-0.46833 z M 404.04083,679.10795 c 0,-0.59436 0.50026,-1.08067 1.11169,-1.08067 0.61144,0 1.11171,0.48631 1.11171,1.08067 0,0.59437 -0.50027,1.08067 -1.11171,1.08067 -0.61143,0 -1.11169,-0.4863 -1.11169,-1.08067 z m 5.00264,-2.16135 c 0.37789,-0.59436 0.90769,-1.08067 1.17732,-1.08067 0.26963,0 0.49023,0.48631 0.49023,1.08067 0,0.59438 -0.52979,1.08068 -1.1773,1.08068 -0.64753,0 -0.86814,-0.4863 -0.49025,-1.08068 z m 11.67285,-1.94943 c 0,-1.12456 3.67923,-2.33473 7.17047,-2.3585 3.15786,-0.0215 0.75288,1.77606 -3.55744,2.65894 -2.10168,0.43049 -3.61303,0.30481 -3.61303,-0.30044 z m 3.33511,-4.5346 c 0,-0.59437 0.50026,-1.08067 1.11169,-1.08067 0.61144,0 1.11171,0.4863 1.11171,1.08067 0,0.59437 -0.50027,1.08068 -1.11171,1.08068 -0.61143,0 -1.11169,-0.48631 -1.11169,-1.08068 z M 280.43369,659.99831 c 0.8025,-0.31218 1.76135,-0.27379 2.13075,0.0852 0.36941,0.35909 -0.28719,0.61451 -1.4591,0.56759 -1.29507,-0.0519 -1.55849,-0.30792 -0.67165,-0.6529 z m 9.65789,-1.42313 c 0.37789,-0.59437 1.18733,-1.08068 1.79877,-1.08068 0.61142,0 0.80252,0.48631 0.42463,1.08068 -0.37789,0.59436 -1.18734,1.08067 -1.79876,1.08067 -0.61144,0 -0.80253,-0.48631 -0.42464,-1.08067 z m 7.22605,-1.08068 c 0,-0.59436 0.50026,-1.08067 1.1117,-1.08067 0.61143,0 1.1117,0.48631 1.1117,1.08067 0,0.59438 -0.50027,1.08068 -1.1117,1.08068 -0.61144,0 -1.1117,-0.4863 -1.1117,-1.08068 z m 51.1382,-40.6883 c -11.60686,-0.48894 -14.6814,-1.76232 -13.7169,-5.68113 1.11412,-4.52662 9.21659,-24.04124 11.93173,-28.73729 1.37461,-2.37747 2.32022,-5.08137 2.10137,-6.00864 -0.76165,-3.2271 2.82505,-13.6971 5.6244,-16.41834 1.5431,-1.50002 3.14565,-4.48909 3.5612,-6.64236 1.04337,-5.40643 2.48502,-5.82336 3.28271,-0.94933 0.36749,2.24539 2.51889,8.70242 4.78089,14.34893 2.26201,5.64652 3.99409,10.99584 3.84907,11.88739 -0.14502,0.89156 1.32133,9.51639 3.25855,19.1663 1.93722,9.64991 3.22019,17.83887 2.85105,18.19771 -0.89981,0.87471 -15.84083,1.32894 -27.52407,0.83676 z m 174.32845,-17.32554 c 0.8025,-0.31218 1.76135,-0.27379 2.13076,0.0852 0.36941,0.3591 -0.28719,0.61451 -1.4591,0.56759 -1.29508,-0.0519 -1.5585,-0.30793 -0.67166,-0.6529 z m 12.73622,-3.2527 c 1.08165,-0.27399 2.58245,-0.25597 3.33511,0.0401 0.75264,0.29603 -0.13234,0.5202 -1.96664,0.49818 -1.83431,-0.022 -2.45012,-0.26422 -1.36847,-0.53822 z m 126.99057,-1.41244 c -2.12152,-0.88621 -2.10878,-0.93225 0.27792,-1.00472 1.37574,-0.0418 2.50133,0.41035 2.50133,1.00472 0,0.59437 -0.12507,1.04649 -0.27793,1.00471 -0.15285,-0.0417 -1.27845,-0.49389 -2.50132,-1.00471 z m -105.05565,-2.16134 c 0,-0.59438 0.47074,-1.08068 1.04609,-1.08068 0.57535,0 1.35527,0.4863 1.73316,1.08068 0.37789,0.59436 -0.0928,1.08067 -1.04608,1.08067 -0.95324,0 -1.73317,-0.48631 -1.73317,-1.08067 z m 78.65278,-2.87706 c 0.76429,-0.29979 2.01495,-0.29979 2.77924,0 0.7643,0.29979 0.13897,0.54508 -1.38962,0.54508 -1.52859,0 -2.15392,-0.24529 -1.38962,-0.54508 z m -47.52518,-3.60698 c 1.52858,-0.47587 4.02991,-0.87952 5.5585,-0.89699 2.52644,-0.0289 2.57699,0.0527 0.55585,0.89699 -1.22287,0.51083 -3.7242,0.91446 -5.5585,0.89699 -3.25216,-0.031 -3.26599,-0.0533 -0.55585,-0.89699 z m 17.23135,-3.24201 c 0.37789,-0.59438 1.65807,-1.08068 2.84486,-1.08068 1.18678,0 2.15778,0.4863 2.15778,1.08068 0,0.59436 -1.28018,1.08067 -2.84486,1.08067 -1.61347,0 -2.54746,-0.46776 -2.15778,-1.08067 z m 13.3404,-3.24202 c 0.37788,-0.59437 1.43746,-1.08068 2.35461,-1.08068 0.91716,0 1.35838,0.48631 0.98049,1.08068 -0.37789,0.59437 -1.43746,1.08067 -2.35461,1.08067 -0.91716,0 -1.35838,-0.4863 -0.98049,-1.08067 z m -33.6137,-3.76287 c -2.27986,-1.59777 -2.44911,-2.43066 -2.0403,-10.03972 0.24519,-4.56358 0.006,-9.09661 -0.53196,-10.07339 -0.53777,-0.97678 -0.62017,-2.12359 -0.1831,-2.54844 0.43706,-0.42487 0.82518,-10.94966 0.86247,-23.38844 0.0434,-14.45332 0.49463,-23.03086 1.25041,-23.76554 1.59671,-1.55215 21.82511,-1.51857 29.59341,0.049 9.70293,1.9581 13.0187,4.74059 16.16894,13.5685 2.75199,7.71186 2.99639,11.19888 1.77481,25.32281 -0.58683,6.78489 -0.40453,8.25584 1.16103,9.36865 1.71236,1.21716 1.67681,1.49536 -0.45602,3.56865 -1.33033,1.2932 -2.31315,3.64692 -2.31315,5.53971 0,4.09651 -3.75328,7.91919 -10.86054,11.06136 -7.14079,3.15697 -30.53268,4.06528 -34.426,1.33675 z m 64.18545,-4.88251 c 0,-0.59437 0.50027,-1.08067 1.11169,-1.08067 0.61144,0 1.11171,0.4863 1.11171,1.08067 0,0.59437 -0.50027,1.08067 -1.11171,1.08067 -0.61142,0 -1.11169,-0.4863 -1.11169,-1.08067 z m -121.17529,-2.16135 c -0.91716,-0.57616 -1.1673,-1.04757 -0.55586,-1.04757 0.61144,0 1.86209,0.47141 2.77925,1.04757 0.91715,0.57618 1.16729,1.04758 0.55585,1.04758 -0.61144,0 -1.86209,-0.4714 -2.77924,-1.04758 z m 137.85079,-3.66673 c 0,-0.23359 0.7504,-0.70462 1.66755,-1.04676 0.91715,-0.34212 1.66755,-0.15099 1.66755,0.42472 0,0.57572 -0.7504,1.04676 -1.66755,1.04676 -0.91715,0 -1.66755,-0.19113 -1.66755,-0.42472 z m -356.85569,-2.8173 c 0,-0.59437 0.75039,-1.08067 1.66755,-1.08067 0.91715,0 1.66754,0.4863 1.66754,1.08067 0,0.59437 -0.75039,1.08068 -1.66754,1.08068 -0.91716,0 -1.66755,-0.48631 -1.66755,-1.08068 z m 11.37151,-2.36323 c 0.55394,-1.61544 3.08059,-2.50488 3.08059,-1.08446 0,0.58031 -0.7922,1.35061 -1.76045,1.71179 -1.08269,0.40389 -1.59093,0.16237 -1.32014,-0.62733 z m 86.24964,-3.77835 c 0.8025,-0.31217 1.76135,-0.27378 2.13076,0.0852 0.36941,0.3591 -0.2872,0.61452 -1.4591,0.56759 -1.29508,-0.0519 -1.5585,-0.30793 -0.67166,-0.6529 z m -74.77571,-1.26211 c 0.58085,-0.50581 4.55796,-2.26218 8.838,-3.90305 4.28005,-1.64085 8.40724,-3.22425 9.17154,-3.51865 0.76429,-0.29439 1.38962,-0.0731 1.38962,0.49195 0,0.56496 -4.03412,2.56221 -8.9647,4.43831 -8.99304,3.42188 -12.45118,4.24758 -10.43446,2.49144 z m 60.53205,-4.4837 c 0,-0.59437 0.50027,-1.08068 1.11171,-1.08068 0.61143,0 1.11169,0.48631 1.11169,1.08068 0,0.59436 -0.50026,1.08067 -1.11169,1.08067 -0.61144,0 -1.11171,-0.48631 -1.11171,-1.08067 z m -8.33775,-2.16135 c -0.37789,-0.59437 0.0929,-1.08067 1.0461,-1.08067 0.95323,0 1.73315,0.4863 1.73315,1.08067 0,0.59438 -0.47073,1.08067 -1.04608,1.08067 -0.57535,0 -1.35527,-0.48629 -1.73317,-1.08067 z m -9.44945,-1.08067 c 0,-0.59437 1.78046,-1.08067 3.95657,-1.08067 2.35461,0 3.67836,0.43754 3.26949,1.08067 -0.37789,0.59437 -2.15835,1.08067 -3.95657,1.08067 -1.79822,0 -3.26949,-0.4863 -3.26949,-1.08067 z m -17.124,-0.91183 c -0.3847,-0.60509 -0.15775,-1.42562 0.50433,-1.82339 1.70922,-1.02687 2.81202,0.37969 1.38516,1.76673 -0.7984,0.77611 -1.42022,0.79475 -1.88949,0.0566 z m 6.49741,-2.90488 c 1.18687,-0.87266 2.90836,-1.58665 3.82551,-1.58665 1.25958,0 1.1396,0.38817 -0.49041,1.58665 -1.18687,0.87264 -2.90835,1.58663 -3.8255,1.58663 -1.25959,0 -1.13962,-0.38817 0.4904,-1.58663 z m 16.25768,-6.53469 c 1.46776,-1.71918 3.26252,-2.03899 3.26252,-0.58136 0,0.52504 -1.02913,1.21624 -2.28694,1.53598 -1.87651,0.47703 -2.05159,0.30571 -0.97558,-0.95462 z m 7.70932,-3.66834 c 3.33603,-2.3872 10.19891,-5.54973 11.28182,-5.19884 1.31821,0.42714 -6.19243,4.60482 -10.17012,5.65695 -2.18948,0.57915 -2.42539,0.48193 -1.1117,-0.45811 z m 281.81594,-32.44916 -3.33511,-0.82495 2.99157,-0.12788 c 1.64536,-0.0704 3.30075,0.35846 3.67864,0.95283 0.37789,0.59437 0.53248,1.02313 0.34353,0.95282 -0.18894,-0.0704 -1.84433,-0.4991 -3.67863,-0.95282 z m -16.93814,-1.85614 c 1.68985,-0.24841 4.19117,-0.24176 5.5585,0.0147 1.36733,0.25651 -0.0152,0.45974 -3.07246,0.45163 -3.05718,-0.009 -4.17589,-0.21798 -2.48604,-0.46638 z m -321.01865,-3.54722 c 0.37789,-0.59438 1.43746,-1.08067 2.35461,-1.08067 0.91715,0 1.35838,0.48629 0.98049,1.08067 -0.37789,0.59436 -1.43747,1.08067 -2.35462,1.08067 -0.91715,0 -1.35837,-0.48631 -0.98048,-1.08067 z m 298.21352,0.31801 c 1.37573,-0.2576 3.62691,-0.2576 5.00264,0 1.37573,0.25758 0.25013,0.46833 -2.50132,0.46833 -2.75146,0 -3.87705,-0.21075 -2.50132,-0.46833 z m -16.39758,-1.39868 c 0,-0.59438 0.7504,-1.08068 1.66755,-1.08068 0.91715,0 1.66755,0.4863 1.66755,1.08068 0,0.59436 -0.7504,1.08067 -1.66755,1.08067 -0.91715,0 -1.66755,-0.48631 -1.66755,-1.08067 z m -13.34041,-2.16135 c 0,-0.59437 0.75041,-1.08067 1.66756,-1.08067 0.91716,0 1.66755,0.4863 1.66755,1.08067 0,0.59436 -0.75039,1.08067 -1.66755,1.08067 -0.91715,0 -1.66756,-0.48631 -1.66756,-1.08067 z m -13.61832,-1.79638 c 0.7643,-0.29979 2.01496,-0.29979 2.77926,0 0.76429,0.29979 0.13895,0.54508 -1.38963,0.54508 -1.52859,0 -2.15392,-0.24529 -1.38963,-0.54508 z m -243.72901,-2.54393 c 0.38405,-0.60406 1.16397,-0.81853 1.73316,-0.47656 1.54198,0.92638 1.25446,1.57485 -0.69828,1.57485 -0.95324,0 -1.41893,-0.49423 -1.03488,-1.09829 z M 136.8701,713.73137 c 2.95095,-0.57131 9.07206,-1.56134 13.60247,-2.20003 10.42118,-1.46921 29.20089,-8.3056 37.46686,-13.63911 15.22342,-9.8227 32.24872,-30.13828 31.43682,-37.51223 -0.142,-1.28983 0.32491,-4.29036 1.03759,-6.66785 2.39841,-8.00096 1.65581,-20.2385 -1.74899,-28.82211 -3.28267,-8.27575 -11.28217,-18.18713 -14.67888,-18.18713 -1.47529,0 -1.83903,-0.64674 -1.45683,-2.59032 0.42759,-2.17434 -0.53444,-3.2728 -5.99059,-6.84024 -3.57498,-2.33745 -8.6261,-5.39493 -11.2247,-6.79439 -2.59859,-1.39946 -4.72472,-3.16965 -4.72472,-3.93375 0,-0.76412 3.62692,-3.02272 8.05982,-5.01913 6.46237,-2.9104 9.71237,-5.34115 16.39758,-12.26407 4.68103,-4.84748 9.72383,-11.38715 11.49816,-14.91124 2.96204,-5.88302 3.11108,-6.81882 2.37438,-14.90886 -0.52152,-5.72714 -1.39798,-9.22672 -2.60456,-10.39963 -1.00019,-0.97228 -1.71116,-2.98353 -1.57993,-4.46945 0.333,-3.77036 -5.2807,-14.36884 -8.29072,-15.65262 -1.6358,-0.69768 -2.28893,-1.69045 -1.89862,-2.88592 0.72461,-2.21931 -10.16941,-11.12812 -19.43771,-15.89559 -7.7868,-4.00542 -20.7038,-8.22684 -30.0875,-9.83292 -11.12305,-1.9038 -42.60023,-2.76643 -46.34729,-1.27015 -1.71784,0.68597 -6.25681,1.41573 -10.086586,1.62168 -5.247899,0.28221 -8.983167,1.34489 -15.162996,4.3139 -4.509877,2.16668 -8.512898,3.93943 -8.895612,3.93943 -0.382703,0 -3.519216,-1.82363 -6.970033,-4.05251 -6.091549,-3.93454 -6.61029,-4.06329 -17.817779,-4.42239 -13.604318,-0.43591 -27.055764,1.12383 -36.796869,4.26669 -7.584384,2.44702 -16.1106114,8.06668 -16.6920972,11.00181 -0.3026603,1.52771 0.6023635,1.34168 5.5067502,-1.13188 5.3897212,-2.71835 6.9013221,-2.96003 18.512628,-2.96003 h 12.643697 l 3.244697,3.52923 c 2.766577,3.00919 3.278926,4.52198 3.476997,10.26639 0.127757,3.70542 0.29579,8.47807 0.373387,10.60587 0.0776,2.12782 0.482233,4.40531 0.899176,5.06111 0.741338,1.16602 0.352509,5.23417 -1.096691,11.47432 -0.537141,2.31291 -0.23796,3.37731 1.163583,4.13977 1.49309,0.81224 1.611308,1.34882 0.566766,2.5723 -0.851518,0.99737 -1.468356,7.58134 -1.738343,18.55436 -0.531025,21.58319 -0.337367,20.50325 -3.93664,21.95251 -1.683014,0.67767 -3.668477,1.9448 -4.412137,2.81584 -0.743661,0.87106 -3.361737,2.58036 -5.817937,3.79844 l -4.465822,2.2147 3.863169,3.37985 c 2.124736,1.85891 5.282331,4.35244 7.016883,5.54118 8.185936,5.61007 7.493847,3.09751 7.895504,28.66402 0.200529,12.76453 0.454208,25.3966 0.563732,28.07126 0.109503,2.67468 0.111615,10.21236 0.0045,16.75043 -0.293834,17.96135 -0.210033,18.91176 1.667661,18.91176 4.143173,0 -1.218368,4.87978 -7.109287,6.47048 -7.243048,1.9558 -13.857007,0.93715 -21.625244,-3.33059 -2.977367,-1.63574 -3.6505679,-0.28233 -1.181915,2.37607 2.661231,2.86577 14.786498,8.77733 22.134546,10.79149 3.318025,0.90951 10.711597,1.52364 18.34305,1.52364 10.815381,0 13.467063,-0.34801 17.215671,-2.25938 l 4.431133,-2.25939 8.909263,4.11481 c 6.731944,3.1092 11.626159,4.48629 20.026285,5.63481 13.56199,1.85428 26.37564,2.1426 33.54412,0.75476 z M 91.097279,694.23736 c 0.377889,-0.59437 1.437461,-1.08068 2.354613,-1.08068 0.917153,0 1.358376,0.48631 0.980486,1.08068 -0.377888,0.59437 -1.437461,1.08067 -2.354613,1.08067 -0.917153,0 -1.358376,-0.4863 -0.980486,-1.08067 z M 75.811404,690.2504 c -1.070011,-0.27181 -1.945475,-0.94485 -1.945475,-1.49563 0,-1.50067 3.07334,-1.20671 3.653058,0.3494 0.395653,1.06203 0.988534,1.0729 2.773034,0.0509 1.840987,-1.05439 2.386876,-1.00336 2.889609,0.27017 0.62731,1.58911 -2.836469,1.97693 -7.370226,0.82521 z m 43.683866,-2.14026 c -5.13282,-1.063 -10.32789,-6.40454 -13.03362,-13.40112 -1.4114,-3.64961 -2.20968,-7.19225 -1.77395,-7.87256 1.25085,-1.95297 1.27424,-34.56112 0.0259,-36.08859 -0.72076,-0.88193 -0.72653,-1.81975 -0.0166,-2.70169 0.59804,-0.74295 1.69549,-3.78235 2.43875,-6.7542 3.15934,-12.63212 16.41088,-17.96129 32.59844,-13.10957 3.67578,1.1017 6.39227,2.53947 6.39227,3.38327 0,0.80706 1.73826,3.25903 3.86281,5.44884 3.07204,3.16638 3.64099,4.38436 2.77925,5.94959 -1.43381,2.6043 -1.37834,6.79477 0.10906,8.24067 0.81212,0.78945 0.85478,2.49612 0.1337,5.34932 -0.58241,2.3045 -0.82818,7.83726 -0.54614,12.29503 0.53263,8.41878 0.58352,11.88561 0.3509,23.90329 -0.15695,8.10971 -1.90996,10.82743 -8.79251,13.63126 -4.08255,1.66316 -19.57018,2.75329 -24.52825,1.72646 z m -57.302188,-2.51816 c -0.377888,-0.59436 0.372509,-1.08067 1.667551,-1.08067 1.295041,0 2.045438,0.48631 1.66755,1.08067 -0.37789,0.59438 -1.128287,1.08067 -1.66755,1.08067 -0.539264,0 -1.289661,-0.48629 -1.667551,-1.08067 z m 26.802161,-0.88978 c -0.362659,-0.57041 1.087532,-1.23537 3.222652,-1.47768 2.135119,-0.24231 3.882033,-0.0519 3.882033,0.42312 0,0.47502 -0.709487,0.86367 -1.576623,0.86367 -0.867149,0 -2.317339,0.27631 -3.222652,0.614 -0.905313,0.33771 -1.942752,0.14731 -2.30541,-0.42311 z m -4.568165,-3.4329 c 0.37789,-0.59438 0.907682,-1.08068 1.177313,-1.08068 0.269632,0 0.490238,0.4863 0.490238,1.08068 0,0.59436 -0.529792,1.08067 -1.177313,1.08067 -0.647521,0 -0.868126,-0.48631 -0.490238,-1.08067 z M 207.06148,621.09411 c 0.8025,-0.31218 1.76135,-0.27379 2.13077,0.0852 0.36941,0.35909 -0.2872,0.61451 -1.45911,0.56759 -1.29508,-0.0519 -1.5585,-0.30792 -0.67166,-0.65289 z m -19.23843,-4.65278 c -0.38947,-0.61258 0.0568,-0.79374 1.04608,-0.42471 1.92594,0.71842 2.27832,1.49301 0.67921,1.49301 -0.57535,0 -1.35173,-0.48074 -1.72529,-1.0683 z m -14.45997,-2.17371 c -4.77317,-0.83077 -3.99487,-1.00351 6.94151,-1.54064 4.77844,-0.23469 5.60597,-0.0241 4.58861,1.16749 -1.31445,1.53962 -4.27733,1.63549 -11.53012,0.37315 z m 24.73533,-1.79638 c 0.76429,-0.29979 2.01495,-0.29979 2.77924,0 0.7643,0.29978 0.13897,0.54508 -1.38962,0.54508 -1.52859,0 -2.15392,-0.2453 -1.38962,-0.54508 z m -38.07573,-3.60698 c -0.37788,-0.59437 0.0633,-1.08068 0.98048,-1.08068 0.91716,0 1.97673,0.48631 2.35462,1.08068 0.37789,0.59437 -0.0634,1.08067 -0.98049,1.08067 -0.91715,0 -1.97672,-0.4863 -2.35461,-1.08067 z m -35.01855,-8.45822 c 0,-0.49143 1.50079,-0.67939 3.3351,-0.41768 1.83431,0.26171 3.3351,0.66378 3.3351,0.89352 0,0.22971 -1.50079,0.41767 -3.3351,0.41767 -1.83431,0 -3.3351,-0.40207 -3.3351,-0.89351 z m -7.99035,-3.08672 c 0.80251,-0.31217 1.76135,-0.2738 2.13077,0.0852 0.36941,0.3591 -0.2872,0.61451 -1.45911,0.56759 -1.29507,-0.0519 -1.55849,-0.30792 -0.67166,-0.6529 z m -18.950836,-4.63348 c -2.125156,-1.87916 -2.975408,-3.22347 -2.050546,-3.24201 0.869,-0.0174 2.538616,0.81936 3.710246,1.8595 1.171636,1.04015 4.212616,2.45131 6.757736,3.13592 l 4.6275,1.24475 -4.70718,0.10612 c -3.75282,0.0846 -5.44329,-0.54479 -8.337756,-3.10424 z m -19.958659,-2.93123 c 0.802503,-0.31218 1.761344,-0.27379 2.130762,0.0852 0.369407,0.3591 -0.287196,0.61451 -1.459106,0.56759 -1.295075,-0.0519 -1.558492,-0.30793 -0.671656,-0.6529 z m -4.794206,-3.58447 c -0.869546,-1.3677 0.60213,-1.3677 2.77925,0 1.437083,0.9028 1.407735,1.04987 -0.212313,1.06412 -1.033925,0.009 -2.189048,-0.46975 -2.566937,-1.06412 z m -10.76959,-2.89957 c 0.802503,-0.31217 1.761344,-0.27378 2.130762,0.0852 0.369407,0.35909 -0.287197,0.61451 -1.459106,0.56759 -1.295075,-0.0519 -1.558493,-0.30794 -0.671656,-0.6529 z m -6.461756,-1.42312 c 0,-0.59436 0.529792,-1.08067 1.177312,-1.08067 0.647521,0 0.868127,0.48631 0.490238,1.08067 -0.377889,0.59437 -0.907681,1.08068 -1.177313,1.08068 -0.269632,0 -0.490237,-0.48631 -0.490237,-1.08068 z m -12.43714,-2.89956 c 0.802503,-0.31218 1.761344,-0.27379 2.130762,0.0852 0.369406,0.35911 -0.287197,0.61452 -1.459107,0.56759 -1.295075,-0.0519 -1.558492,-0.30792 -0.671655,-0.65289 z m 69.689687,-6.1786 c -5.36269,-2.29754 -9.62871,-7.07066 -8.6968,-9.73057 0.67822,-1.93588 0.72499,-6.50518 0.22777,-22.25681 -0.0469,-1.48592 0.0984,-7.1288 0.32278,-12.53972 0.36141,-8.71289 0.75414,-10.27908 3.43415,-13.69469 1.68507,-2.14756 5.80251,-5.17713 9.29124,-6.83636 8.3881,-3.98939 14.65764,-3.98482 22.65751,0.0164 3.36289,1.68201 7.16264,3.58313 8.44389,4.2247 1.79011,0.89636 2.37348,2.29636 2.51939,6.04602 0.10438,2.68375 0.682,5.35795 1.2835,5.94266 1.55518,1.51177 1.35546,5.76842 -0.29601,6.30874 -1.08561,0.35518 -1.05839,0.84472 0.12438,2.23762 0.88718,1.04481 1.1775,2.57167 0.70122,3.68794 -0.44703,1.04771 -0.96815,6.65876 -1.15804,12.46902 -0.39815,12.1821 -2.34968,17.26355 -8.04594,20.95024 -6.84249,4.42854 -23.80316,6.17627 -30.80904,3.17473 z m 45.85763,-47.8325 c 0.76429,-0.29979 2.01495,-0.29979 2.77925,0 0.76429,0.29979 0.13896,0.54508 -1.38963,0.54508 -1.52858,0 -2.15392,-0.24529 -1.38962,-0.54508 z m 8.05982,-2.26882 c 0,-1.35284 8.90621,-3.61948 10.48795,-2.6692 0.64497,0.3875 -0.32537,1.05174 -2.15632,1.4761 -1.83093,0.42438 -4.45457,1.10837 -5.8303,1.51998 -1.43387,0.429 -2.50133,0.2895 -2.50133,-0.32688 z m 12.73443,-3.42066 c 0.77947,-1.22601 8.32917,-3.73815 9.06998,-3.01801 0.29322,0.28503 -0.74083,0.82907 -2.29789,1.20896 -1.55705,0.37989 -2.83102,1.16774 -2.83102,1.75079 0,0.58304 -1.03005,1.06008 -2.28902,1.06008 -1.25895,0 -2.00238,-0.45082 -1.65205,-1.00182 z m -5.50838,-2.24019 c 3.03647,-1.2684 3.89095,-1.2684 3.89095,0 0,0.59437 -1.37573,1.04649 -3.05717,1.00472 -2.70904,-0.0673 -2.80399,-0.18173 -0.83378,-1.00472 z M 34.400587,487.82898 c 0.377889,-0.59438 1.407946,-1.08068 2.289012,-1.08068 0.881067,0 1.601938,0.4863 1.601938,1.08068 0,0.59436 -1.030057,1.08066 -2.289013,1.08066 -1.258955,0 -1.979826,-0.4863 -1.601937,-1.08066 z m 655.114163,-60.24749 0.32288,-8.91554 H 361.84119 33.844737 v 8.46527 c 0,4.65589 0.334344,8.79027 0.742994,9.18752 0.408649,0.39725 147.861749,0.59987 327.673559,0.45027 l 326.93057,-0.27197 z M 251.77736,372.26824 c 10.65111,-1.09001 32.75614,-7.67477 45.07604,-13.42747 8.94712,-4.1778 17.13973,-11.12579 17.13973,-14.53586 0,-4.26437 -3.54419,-4.89914 -23.02117,-4.12311 -15.9189,0.63425 -18.11174,0.51931 -18.11174,-0.94934 0,-0.97725 -1.33138,-1.9298 -3.20691,-2.29444 -2.87982,-0.55989 -3.28117,-1.16773 -3.93509,-5.9596 -0.43149,-3.16192 -1.64643,-6.22872 -2.98183,-7.52684 -1.75402,-1.70508 -1.96947,-2.52359 -0.97184,-3.69211 0.70498,-0.82575 0.94552,-2.03026 0.53453,-2.67671 -0.411,-0.64645 -0.19809,-1.81859 0.47312,-2.60478 0.90173,-1.05619 0.51828,-4.21835 -1.46851,-12.11022 -2.48815,-9.88337 -2.55137,-10.78535 -0.84675,-12.08119 1.24982,-0.95009 1.84214,-3.03493 1.84214,-6.48403 0,-4.72805 0.27164,-5.21542 3.88346,-6.96747 3.29866,-1.60015 5.72603,-1.77724 16.11965,-1.17599 10.83199,0.6266 15.43616,0.70464 22.51941,0.38172 1.07001,-0.0487 10.89222,0.0525 21.82715,0.22513 19.24116,0.3037 19.93168,0.23961 21.43406,-1.9893 2.9444,-4.36831 13.14216,-38.28923 12.27301,-40.82389 -0.29433,-0.85832 -14.08864,-1.20275 -48.17154,-1.20275 -44.41549,0 -47.9766,-0.13851 -50.86561,-1.97849 -2.57434,-1.63958 -2.97491,-2.47261 -2.33837,-4.86303 0.79556,-2.98754 1.3257,-6.09956 2.38247,-13.98536 0.43273,-3.22912 1.33472,-4.98496 3.0009,-5.84165 7.07157,-3.63596 27.39546,-17.58981 27.39546,-18.80901 0,-1.41952 -12.9832,-12.51756 -24.32023,-20.78893 l -5.97718,-4.36088 -0.1933,-15.64773 c -0.128,-10.36143 -0.64582,-16.17778 -1.5328,-17.21668 -1.05195,-1.23215 -0.98511,-2.54537 0.31141,-6.11752 1.23684,-3.40775 1.54837,-8.12142 1.24214,-18.794 -0.36511,-12.724374 -0.0799,-15.5442 2.67104,-26.409141 1.69388,-6.690045 3.76401,-12.969435 4.60027,-13.954196 3.41344,-4.019545 10.99996,-6.052448 24.27026,-6.503523 17.07884,-0.580532 20.05341,-1.079261 20.03926,-3.35988 -0.0127,-2.062963 -8.01643,-10.591334 -15.58041,-16.601927 -9.39825,-7.468176 -30.57853,-16.039439 -39.63472,-16.039439 -8.43228,0 -40.24112,8.360499 -43.90831,11.540673 -1.66673,1.445376 -2.90888,1.211193 -11.89227,-2.242039 -5.51712,-2.1208 -15.68375,-5.519819 -22.59251,-7.553381 -13.3051,-3.916298 -15.2268,-3.842839 -17.71528,0.677168 -1.12466,2.042796 -13.06658,15.705934 -25.15624,28.782073 -1.99201,2.154544 -3.42499,4.729632 -3.18442,5.72242 0.28856,1.190769 -0.46281,2.024702 -2.20783,2.450447 -1.58041,0.385591 -3.26037,2.051537 -4.17339,4.138629 -0.8405,1.921289 -4.12668,6.63281 -7.30262,10.470048 -3.2664,3.946556 -5.56974,7.737684 -5.30314,8.728655 0.2592,0.963521 -1.08514,3.938666 -2.9874,6.611443 -4.86793,6.839618 -13.667172,18.85642 -18.476492,25.23266 -30.467313,40.39377 -38.214357,51.12476 -38.228454,52.95294 -0.0088,1.18874 -1.181037,3.06034 -2.604168,4.15912 -2.542803,1.96328 -6.970848,9.50262 -8.625669,14.68637 -0.462723,1.44948 -3.994138,6.33992 -7.84758,10.86767 -3.853441,4.52775 -13.493513,17.07443 -21.42238,27.88151 -14.26227706,19.43956 -14.40499706,19.69264 -13.37279476,23.71385 2.08169166,8.10984 2.19506276,11.75287 0.57244776,18.39529 -1.60198196,6.55791 -1.58241606,6.80261 0.6362369,7.95687 1.6200138,0.84281 10.2837251,0.94075 29.6422121,0.33514 31.502328,-0.98552 36.075606,-0.97846 62.086703,0.096 14.637338,0.60463 19.563288,0.47435 20.834268,-0.55104 1.11974,-0.90335 3.31551,-1.10222 6.70876,-0.60757 2.77432,0.40442 12.09338,0.89008 20.70901,1.07926 11.71174,0.25714 15.91417,0.71653 16.65296,1.82037 0.54347,0.81203 0.67252,4.05942 0.28675,7.2164 -0.63924,5.23124 -0.49224,5.79314 1.65864,6.3399 2.901,0.73746 3.11842,2.5092 0.30789,2.5092 -1.64756,0 -2.00576,0.74265 -1.81686,3.7669 0.12939,2.07181 0.86398,4.50331 1.6324,5.40337 1.10459,1.2938 1.11179,1.97067 0.0344,3.23261 -1.02874,1.20497 -1.08376,3.12511 -0.22441,7.83487 1.07676,5.90133 0.97776,6.46093 -1.83057,10.3475 -1.6329,2.25983 -3.75458,5.41128 -4.71485,7.00321 -2.74137,4.54467 -11.89739,6.73373 -31.32712,7.48982 -12.01357,0.4675 -16.39757,0.99873 -16.39757,1.98697 0,2.20088 7.78271,9.12773 16.11965,14.34698 10.77049,6.74275 24.90814,11.40564 43.20821,14.25097 18.11363,2.81636 23.35746,2.21067 36.5982,-4.22722 l 8.01789,-3.89844 9.39871,4.686 c 6.79035,3.38553 10.23434,4.52356 12.40967,4.10064 1.90654,-0.37067 3.5042,-0.008 4.35573,0.98975 1.55992,1.82715 2.79788,1.87213 15.56407,0.56567 z m -28.94363,-76.6833 c 0,-1.17064 2.74493,-2.27697 5.64943,-2.27697 2.93934,0 2.68508,1.7653 -0.36885,2.56088 -3.54992,0.9248 -5.28058,0.83174 -5.28058,-0.28391 z m 69.75917,-33.70302 c -3.22581,-1.82642 -2.19996,-3.05528 2.2234,-2.66339 5.63565,0.49927 5.56481,0.44837 3.12262,2.24398 -2.52166,1.85406 -2.77679,1.87408 -5.34602,0.41941 z m -23.06777,-0.86137 c 0,-0.52135 2.37626,-0.72425 5.28057,-0.45087 7.87683,0.74143 8.28003,1.21781 1.11171,1.31348 -3.51576,0.0469 -6.39228,-0.34124 -6.39228,-0.86261 z m 36.38032,-0.7902 c -0.41002,-0.39857 -0.47942,-1.14314 -0.15425,-1.65462 0.82559,-1.29854 6.01853,-1.16848 6.01853,0.15073 0,0.59437 -0.45936,1.08068 -1.02077,1.08068 -0.56144,0 -1.71316,0.25826 -2.55941,0.57394 -0.84623,0.31566 -1.87408,0.24784 -2.2841,-0.15073 z m -12.88886,-5.1155 c -0.68099,-0.79765 -0.93845,-1.74164 -0.57211,-2.09774 0.78251,-0.76068 4.87315,1.52866 4.87315,2.7273 0,1.35906 -2.97502,0.9236 -4.30104,-0.62956 z m -30.16166,-5.03376 c 0,-0.59437 1.00053,-1.08068 2.2234,-1.08068 1.22287,0 2.2234,0.48631 2.2234,1.08068 0,0.59436 -1.00053,1.08067 -2.2234,1.08067 -1.22287,0 -2.2234,-0.48631 -2.2234,-1.08067 z m 65.39449,-1.7174 c 1.38728,-0.94457 3.36057,-1.4047 4.38509,-1.02254 1.60293,0.59794 1.6345,0.83517 0.22636,1.70085 -0.90002,0.55329 -2.8733,1.01344 -4.38509,1.02254 l -2.74867,0.0165 2.52231,-1.7174 z m 14.6479,-3.65903 c 0,-1.50006 3.32943,-4.34962 5.08206,-4.34962 2.57082,0 1.81786,1.48617 -1.75398,3.46192 -1.83045,1.0125 -3.32808,1.41196 -3.32808,0.8877 z m -220.56377,-11.7434 c -0.31812,-0.50036 -5.97562,-0.75249 -12.57222,-0.56032 -14.067942,0.40986 -18.108202,-0.17521 -18.108202,-2.62223 0,-1.53183 7.224246,-12.52913 17.558442,-26.72878 5.93558,-8.15577 20.23936,-32.89789 20.23936,-35.00925 0,-1.15851 0.95927,-2.40235 2.13173,-2.76408 3.25285,-1.0036 7.87357,-4.86175 7.87357,-6.57418 0,-1.2243 -1.35332,-1.38851 -6.84498,-0.83053 -5.26382,0.53482 -6.65022,0.38916 -6.00189,-0.63057 0.46369,-0.72934 1.49981,-1.08109 2.30249,-0.78166 2.40179,0.89593 12.76778,-2.80005 12.76778,-4.55233 0,-0.86977 2.97298,-4.1967 6.60663,-7.39318 3.63365,-3.19649 6.92139,-6.77584 7.3061,-7.9541 1.04178,-3.19075 2.76277,-1.43667 2.76277,2.81592 0,2.58495 0.50836,3.71857 1.66755,3.71857 0.91716,0 1.66755,0.43428 1.66755,0.96505 0,0.53078 -0.75039,1.24497 -1.66755,1.5871 -1.04665,0.39042 -1.66755,2.04298 -1.66755,4.43831 v 3.81626 l 5.28058,0.0165 c 3.81921,0.012 4.81909,0.30645 3.61302,1.06413 -0.91715,0.57616 -3.01375,1.05502 -4.65911,1.06412 -1.64536,0.009 -3.18195,0.38127 -3.41463,0.82705 -0.23269,0.44578 -0.0831,5.43037 0.33233,11.07688 0.41547,5.64653 0.32619,10.72838 -0.1984,11.29304 -1.56474,1.68425 -1.08197,5.71867 0.76686,6.40832 1.82079,0.67921 1.72108,2.31487 -0.88595,14.53659 -0.97729,4.58146 -0.93176,5.94005 0.22227,6.63338 0.83722,0.50298 1.0825,1.45196 0.5797,2.24279 -1.65206,2.59848 -1.65934,10.34143 -0.0147,15.65358 1.1231,3.62761 1.2864,5.67728 0.51221,6.4289 -0.66774,0.64827 -7.72335,1.1034 -17.10541,1.1034 -8.7829,0 -16.34458,0.36473 -16.80376,0.8105 -1.1181,1.0855 -3.52918,1.02916 -4.24657,-0.0992 z m 77.45356,-4.16184 c 1.08165,-0.27399 2.58244,-0.25598 3.3351,0.04 0.75265,0.29603 -0.13233,0.52021 -1.96663,0.49818 -1.83431,-0.0221 -2.45012,-0.26423 -1.36847,-0.53822 z M 82.263532,164.80214 c -0.412763,-0.64924 -3.95037,-1.17483 -7.907365,-1.17483 -4.403563,0 -7.160435,-0.45115 -7.160435,-1.17177 0,-1.4154 24.419376,-0.20327 26.069361,1.29405 0.631424,0.57299 -0.262684,0.96433 -2.2234,0.97315 -1.803732,0.009 -4.348647,0.29363 -5.655373,0.63448 -1.306725,0.34086 -2.711981,0.091 -3.122788,-0.55508 z m 20.506598,-3.43756 c 0,-0.98018 2.96127,-2.05996 5.64943,-2.05996 3.71593,0 2.29968,1.9059 -1.75848,2.36644 -2.14002,0.24288 -3.89095,0.10494 -3.89095,-0.30648 z m 78.11808,-8.21221 c 1.08166,-0.27399 2.58245,-0.25598 3.3351,0.04 0.75266,0.29603 -0.13232,0.5202 -1.96663,0.49818 -1.83431,-0.022 -2.45012,-0.26423 -1.36847,-0.53822 z m 68.07047,-6.81581 c 0.37788,-0.59438 2.18786,-1.08067 4.02216,-1.08067 1.94032,0 3.04776,0.45194 2.64804,1.08067 -0.37789,0.59437 -2.18786,1.08066 -4.02217,1.08066 -1.94031,0 -3.04776,-0.45195 -2.64803,-1.08066 z M 149.46153,66.719379 c 0,-1.612127 6.27639,-3.370934 9.62609,-2.697477 3.00785,0.60473 2.94642,0.668316 -1.28834,1.333489 -2.44574,0.384164 -5.32226,1.064077 -6.39227,1.510918 -1.07002,0.446842 -1.94548,0.380725 -1.94548,-0.14693 z m 14.4521,-3.478939 c 0,-1.794495 3.47702,-2.27744 15.3768,-2.135778 l 11.85985,0.141187 -11.117,1.37735 c -13.98527,1.732717 -16.11965,1.814445 -16.11965,0.617241 z m 62.2552,-4.285368 c 0.91715,-0.547035 5.9198,-1.293117 11.117,-1.65796 5.69782,-0.399989 8.56671,-0.290098 7.22604,0.276787 -3.15019,1.332028 -20.44382,2.634182 -18.34304,1.381173 z M 465.10986,370.59127 c 9.69756,-1.98302 13.81153,-3.62498 21.19813,-8.46057 5.70429,-3.73427 13.66864,-12.79003 15.85801,-18.03113 0.62071,-1.48592 1.84207,-4.30249 2.71411,-6.25902 2.27808,-5.11121 1.70722,-19.93995 -1.00713,-26.16114 -2.58911,-5.93414 -5.66073,-9.20396 -16.45466,-17.51637 -9.57518,-7.37384 -13.3404,-11.95296 -13.3404,-16.22415 v -3.00235 h -8.15345 c -7.75849,0 -8.47202,-0.21675 -14.73003,-4.47462 -8.05372,-5.47967 -10.1472,-7.70189 -12.94145,-13.73727 -2.54327,-5.49333 -2.02312,-10.32925 1.71483,-15.94329 3.82879,-5.75047 8.27383,-7.23881 19.99248,-6.69418 l 10.01882,0.46565 3.75924,4.25194 3.75926,4.25195 -0.5475,11.41863 c -0.74744,15.58876 -0.54346,16.13851 5.98798,16.13851 2.89617,0 8.29702,-0.30798 12.00185,-0.68441 l 6.73608,-0.68441 -0.0581,-26.87274 c -0.032,-14.78 -0.42209,-26.87273 -0.86695,-26.87273 -0.44487,0 -3.10735,2.49309 -5.91663,5.5402 -3.60499,3.91018 -5.69266,5.36825 -7.09572,4.95573 -4.50852,-1.32552 -9.81138,-3.5262 -10.41746,-4.32324 -0.3562,-0.46841 -4.10818,-2.03863 -8.33774,-3.48938 -10.49819,-3.60089 -21.32075,-3.58338 -33.25923,0.0538 -10.82383,3.29761 -13.00705,4.28309 -19.65083,8.87018 -7.31013,5.04717 -11.31163,11.45133 -13.60657,21.77658 -1.83396,8.25114 -1.833,9.06729 0.0192,16.55553 2.50405,10.12341 5.63225,14.64474 14.73917,21.3032 4.06011,2.96851 9.23738,6.75438 11.50504,8.41305 4.33011,3.16723 4.71413,3.84121 5.81564,10.20699 l 0.68336,3.94921 10.27723,0.37347 c 9.85707,0.35821 10.47033,0.52813 14.99982,4.15583 2.59741,2.0803 6.52163,6.38148 8.72049,9.55816 3.68742,5.32725 3.9406,6.19578 3.25999,11.18335 -1.75915,12.89087 -6.89222,18.36877 -17.84801,19.04691 -8.73248,0.54052 -16.13566,-2.38287 -22.83274,-9.01625 l -4.81019,-4.76442 0.27428,-11.61027 c 0.15085,-6.38563 0.5049,-11.97299 0.78677,-12.41633 0.63187,-0.99385 4.03833,0.14564 5.14899,1.72238 0.46442,0.65932 0.8241,0.14637 0.83377,-1.18909 0.009,-1.29174 -1.2781,-3.84483 -2.86105,-5.67353 -2.42176,-2.79775 -3.66436,-3.32493 -7.83711,-3.32493 -2.72748,0 -6.43675,0.74283 -8.24283,1.65072 -2.47606,1.24469 -5.05268,1.47455 -10.47528,0.93449 -7.0687,-0.70399 -7.24899,-0.65641 -10.55726,2.78626 -1.85116,1.92637 -3.36576,3.92805 -3.36576,4.4482 0,0.52014 2.14645,0.65972 4.7699,0.31016 4.28376,-0.57076 4.89559,-0.36735 6.00327,1.9959 0.76773,1.63796 1.00557,6.18112 0.62995,12.03374 -0.53256,8.29793 -0.31179,9.95353 1.87952,14.09522 3.31145,6.2588 18.33578,17.85748 27.87939,21.52271 14.32778,5.50258 20.23883,6.11722 33.24741,3.45716 z m 149.62947,-3.18813 c 4.2628,-2.04228 9.0012,-4.69214 10.52979,-5.88858 l 2.77925,-2.17535 -6.36332,0.21505 c -5.51148,0.18626 -6.74629,-0.15675 -9.22418,-2.56238 -3.09026,-3.00014 -3.17286,-3.99247 -2.85986,-34.36053 l 0.10428,-10.12118 5.7933,-5.37115 5.79331,-5.37116 -5.79331,-5.20496 c -3.18631,-2.86272 -5.82534,-6.10352 -5.8645,-7.20178 -0.0392,-1.09826 -0.009,-10.21689 0.068,-20.26361 0.10683,-14.00837 -0.20056,-18.47624 -1.31842,-19.16538 -1.11069,-0.68471 -1.12689,-0.90255 -0.068,-0.91517 0.86946,-0.0108 1.38963,-1.58252 1.38963,-4.20001 0,-4.18263 9.9e-4,-4.1836 5.28057,-4.80856 7.23491,-0.85644 40.78247,-0.92851 44.19902,-0.095 3.01842,0.73642 3.81442,4.3977 1.4548,6.69146 -2.02652,1.96997 -0.62583,2.44395 3.75069,1.26927 9.22841,-2.47697 11.83779,-7.60128 7.92857,-15.57019 -1.52982,-3.11852 -1.62079,-4.24517 -0.50621,-6.26964 0.74729,-1.35738 1.3346,-3.43196 1.30513,-4.6102 -0.2106,-8.41636 -1.19291,-10.04063 -7.83251,-12.95111 -5.23386,-2.29427 -6.12821,-1.86588 -4.29041,2.05508 1.15403,2.46211 1.02634,3.28927 -0.89359,5.78905 -1.28581,1.67413 -3.83451,3.2335 -5.98321,3.66068 -4.24214,0.84341 -124.47163,1.03961 -129.17998,0.21082 -2.45028,-0.43131 -3.05717,-1.12176 -3.05717,-3.47816 0,-1.617 0.60032,-3.52357 1.33404,-4.23682 1.76349,-1.71427 -0.16989,-1.72262 -5.99563,-0.0259 -8.63174,2.51396 -12.23552,10.54546 -7.40848,16.51079 2.28598,2.82503 2.30804,3.09461 0.54694,6.68462 -2.15168,4.38619 -1.33421,6.60203 3.7284,10.10633 3.8638,2.67454 11.12985,4.18367 11.12985,2.3117 0,-0.67213 -0.46655,-1.22207 -1.03678,-1.22207 -0.57024,0 -1.38195,-1.05713 -1.80379,-2.34917 -1.62653,-4.9817 -0.22063,-5.15177 45.42923,-5.49569 1.71782,-0.0129 3.6109,0.45044 4.20685,1.02976 1.60186,1.55716 1.74044,49.99203 0.1512,52.8461 -0.6933,1.24508 -3.08071,3.61334 -5.30535,5.2628 l -4.0448,2.99901 4.82534,4.77944 4.82535,4.77945 v 21.9943 c 0,20.46879 -0.15402,22.15975 -2.22068,24.37964 -1.91679,2.05892 -3.09582,2.3238 -8.61567,1.93567 -3.51725,-0.24731 -6.37953,-0.17547 -6.36063,0.15964 0.0647,1.14736 9.54946,7.57277 13.6172,9.22493 5.19228,2.10892 14.17934,2.11569 19.35242,0.0145 3.47239,-1.41036 4.273,-1.42575 5.80072,-0.11155 4.44073,3.82004 11.51319,3.51777 20.7026,-0.88482 z m -12.81591,-76.2226 c 0,-0.5757 0.7504,-0.76684 1.66755,-0.42471 0.91715,0.34213 1.66755,0.81316 1.66755,1.04675 0,0.23359 -0.7504,0.42473 -1.66755,0.42473 -0.91715,0 -1.66755,-0.47105 -1.66755,-1.04677 z m 59.22508,77.61582 c 6.79056,-3.53277 8.93192,-10.53888 5.19606,-17.00044 -2.9371,-5.08 -7.23927,-7.14509 -13.02339,-6.25137 -11.57068,1.78781 -14.10261,17.3842 -3.71331,22.87348 3.55032,1.87584 8.35915,2.03349 11.54064,0.37833 z M 478.75971,165.56009 c 4.93174,-2.54896 8.77241,-5.12076 8.53479,-5.71513 -0.23761,-0.59437 -0.93229,-0.87676 -1.54373,-0.62753 -0.61144,0.24924 -2.99565,0.66579 -5.29826,0.92565 -3.25497,0.36736 -5.01266,-0.14 -7.89907,-2.28013 l -3.71251,-2.75264 0.11717,-19.54109 0.11717,-19.5411 4.90499,-4.83823 c 2.69775,-2.66101 5.32414,-4.8382 5.83642,-4.8382 2.36999,0 0.53836,-3.3019 -3.01628,-5.43748 -7.31496,-4.394692 -7.58883,-5.419792 -7.75013,-29.007447 -0.0799,-11.66532 0.0535,-22.230253 0.29619,-23.477626 0.42679,-2.193641 1.19451,-2.287069 23.43073,-2.851345 12.64422,-0.320864 24.65506,-0.333603 26.69079,-0.02831 4.23907,0.63573 5.59804,2.862314 3.62316,5.936327 -1.92135,2.99071 -1.19132,3.209985 4.82606,1.449565 9.56725,-2.798957 11.76494,-7.109529 7.24737,-14.215095 -2.13006,-3.350325 -2.16557,-3.802117 -0.53906,-6.85963 3.86371,-7.263073 -0.31138,-14.920469 -9.14971,-16.781135 -3.58213,-0.754121 -3.6135,-0.726573 -2.31855,2.036209 1.8753,4.000952 -0.50778,7.904051 -5.63779,9.233808 -2.3076,0.598157 -32.05752,1.041194 -70.89332,1.055746 -59.10171,0.02215 -67.1192,-0.171375 -68.64746,-1.656982 -2.16036,-2.10006 -2.1726,-3.10474 -0.0628,-5.155648 2.54983,-2.478661 2.01639,-3.100987 -1.94548,-2.269708 -5.28681,1.109278 -11.70648,4.515356 -13.0253,6.910837 -1.80643,3.281157 -1.35055,7.436166 1.07454,9.793569 2.40751,2.340317 2.88249,4.879831 1.11169,5.943698 -0.61142,0.367341 -1.11169,2.0912 -1.11169,3.830798 0,2.473694 0.93501,3.764402 4.29097,5.923279 2.36002,1.518206 6.12778,3.050129 8.37278,3.404275 l 4.08182,0.643901 -1.97315,-3.342065 c -3.16582,-5.362163 -1.75536,-5.779762 19.27995,-5.708273 10.31435,0.03506 20.5043,-0.333395 22.64432,-0.818775 2.67635,-0.607023 4.8453,-0.422291 6.94813,0.591776 2.97192,1.433171 3.06004,1.737204 3.16007,10.902414 0.21824,19.996775 0.1084,27.414086 -0.41362,27.921496 -0.29794,0.289632 -0.13258,2.290096 0.3675,4.445461 1.16066,5.002572 -0.85148,8.987034 -6.14418,12.1668 -2.15484,1.29459 -3.9179,2.73647 -3.9179,3.20415 0,0.46769 2.2512,3.03871 5.00265,5.71336 l 5.00265,4.86303 v 19.00311 c 0,12.22114 -0.46476,19.9947 -1.30229,21.78155 -1.54067,3.28704 -4.40066,4.15575 -11.99728,3.64415 -3.08038,-0.20746 -5.6004,-0.0786 -5.60002,0.28634 10e-4,1.12423 8.04515,6.1342 13.82658,8.61152 4.54465,1.94737 6.78687,2.2458 13.04264,1.73599 4.15496,-0.33862 8.39395,-1.07234 9.41996,-1.63049 1.29853,-0.70642 3.24724,-0.38533 6.41211,1.05652 6.62161,3.01664 13.29422,2.01416 24.23639,-3.64126 z M 461.64078,94.806762 c 0.8025,-0.31218 1.76135,-0.2738 2.13076,0.0852 0.36941,0.3591 -0.2872,0.614506 -1.45911,0.56759 -1.29507,-0.0519 -1.55849,-0.30794 -0.67165,-0.6529 z m 147.50869,73.420158 c 2.44574,-1.21456 5.3717,-3.20245 6.50215,-4.41756 2.04985,-2.20337 2.03944,-2.20788 -3.89095,-1.68532 -5.93694,0.52313 -5.95121,0.51692 -9.06849,-3.9526 -2.5091,-3.59752 -2.96621,-5.14597 -2.32789,-7.88556 0.43686,-1.87494 0.79084,-13.49976 0.78659,-25.83294 l -0.008,-22.42395 6.7824,-0.13199 c 13.53443,-0.26341 27.92641,0.34404 28.86805,1.21843 0.52986,0.49201 1.04579,8.90274 1.14651,18.6905 0.13457,13.07628 0.57856,18.25908 1.67409,19.54227 1.2751,1.49351 1.2126,1.74634 -0.43166,1.74634 -1.38873,0 -1.70482,0.52516 -1.13829,1.89118 1.78717,4.30922 1.83281,9.70301 0.11592,13.69744 l -1.78989,4.16427 -6.17466,-0.61949 c -7.57618,-0.76011 -7.56445,0.57842 0.0453,5.16208 l 5.34969,3.22238 22.63179,0.27366 c 12.44751,0.15052 22.63182,-0.12115 22.63182,-0.6037 0,-0.48254 1.50382,-0.66281 3.34182,-0.40057 3.67969,0.52499 14.93235,-4.19383 15.91068,-6.67217 0.4523,-1.14579 -0.99324,-1.33325 -7.0382,-0.91282 -7.06736,0.49155 -7.79338,0.33404 -10.22719,-2.21877 -2.60902,-2.73661 -2.6195,-2.85749 -2.55309,-29.4418 l 0.0667,-26.6939 5.53022,-4.296986 c 3.04162,-2.363336 5.72059,-4.807902 5.95325,-5.432362 0.23267,-0.62444 -2.69381,-3.939122 -6.5033,-7.365943 -6.50376,-5.850467 -6.87743,-6.447031 -6.12474,-9.778335 0.44088,-1.951261 0.93412,-9.655722 1.0961,-17.121026 0.16198,-7.465303 0.35149,-16.051957 0.42113,-19.081453 0.21887,-9.520335 6.0564,-12.609692 16.11052,-8.52606 3.9223,1.5931 4.83981,1.239601 3.17591,-1.223619 -1.43871,-2.129857 -11.73383,-6.603077 -18.17226,-7.89583 -5.04354,-1.01268 -7.7548,-0.945274 -14.15474,0.351909 -6.26223,1.269267 -9.27529,1.358837 -14.42057,0.428678 -5.47871,-0.990435 -7.49553,-0.872763 -12.79067,0.74628 -3.4575,1.057166 -6.85388,2.586833 -7.54749,3.399259 -0.69363,0.812427 -1.89485,1.47714 -2.66939,1.47714 -0.77455,0 -2.58929,0.934534 -4.03276,2.07674 l -2.62448,2.076741 6.94813,-0.605825 c 3.82147,-0.333205 6.97526,-0.173556 7.00843,0.354771 0.48433,7.714539 0.4831,41.711633 -10e-4,44.613575 -0.60906,3.646295 -0.97105,3.946321 -5.63535,4.670633 -8.63396,1.340753 -29.20519,0.993687 -30.2762,-0.5108 -1.41528,-1.988079 0.16154,-46.373749 1.71196,-48.189751 0.94218,-1.10355 2.85006,-1.30627 7.40073,-0.786354 l 6.13133,0.700503 -3.79659,-3.807756 c -5.40058,-5.416479 -11.71985,-7.502928 -20.62068,-6.808396 -3.97279,0.309996 -8.47516,1.361018 -10.00526,2.335602 -2.57836,1.64225 -3.04024,1.642168 -6.30926,-0.0011 -5.50674,-2.768168 -19.55371,-1.678085 -28.41302,2.204925 -10.23108,4.484255 -10.83638,5.876118 -2.27154,5.223224 6.29448,-0.479825 7.20954,-0.282078 9.31562,2.01312 2.82863,3.082657 5.39033,11.739818 4.38499,14.818925 -0.40111,1.228549 -0.19997,3.195185 0.44699,4.370304 0.8337,1.51431 0.82495,2.347657 -0.03,2.861321 -0.72825,0.437521 -1.12443,3.996821 -0.99969,8.981131 0.4414,17.635513 0.5704,17.11994 -5.69136,22.745755 l -5.66795,5.092322 3.93358,3.357326 c 2.16347,1.846526 4.66103,3.762582 5.55013,4.257882 1.30986,0.72971 1.71116,5.30874 2.11517,24.13501 0.27422,12.77894 0.25841,25.33387 -0.0351,27.89984 -0.73075,6.38698 -3.69127,8.16889 -13.0812,7.87338 -3.93646,-0.12387 -7.1572,0.0643 -7.1572,0.41809 0,0.35382 3.04039,2.04106 6.75642,3.74941 8.14289,3.74351 22.74807,5.37558 30.24336,3.3796 3.79156,-1.00969 5.64643,-0.93928 9.69163,0.3678 6.75932,2.18409 18.17249,1.58005 23.90155,-1.26499 z m 60.77731,-4.94368 c -3.4028,-3.52104 -3.00703,-4.41053 0.54043,-1.2146 1.62442,1.46344 2.71031,2.89721 2.41307,3.18616 -0.29724,0.28893 -1.62631,-0.59827 -2.9535,-1.97156 z m 12.55058,0.98655 c -1.9987,-1.42069 -1.94057,-1.4824 0.89922,-0.9547 1.66982,0.31031 3.03604,0.99379 3.03604,1.51888 0,1.38628 -1.49222,1.17235 -3.93526,-0.56418 z m -99.9531,-65.406336 c 0.58085,-0.55231 2.5569,-1.305836 4.39121,-1.674486 3.32352,-0.66796 3.32213,-0.66448 -0.40556,1.004196 -4.26759,1.910356 -5.5095,2.119226 -3.98565,0.67029 z m 38.08962,-10.540725 c 0.8025,-0.312174 1.76135,-0.273778 2.13075,0.08537 0.36941,0.359091 -0.28719,0.614511 -1.4591,0.567591 -1.29507,-0.0519 -1.55849,-0.307927 -0.67165,-0.65291 z m 4.37731,-1.058161 c 0.7643,-0.299789 2.01496,-0.299789 2.77925,0 0.76429,0.2998 0.13896,0.54508 -1.38962,0.54508 -1.52859,0 -2.15392,-0.24528 -1.38963,-0.54508 z m 7.85139,-1.103183 c 0.8025,-0.312173 1.76135,-0.273777 2.13075,0.08537 0.36941,0.359097 -0.28719,0.614514 -1.4591,0.56759 -1.29507,-0.05187 -1.55849,-0.307926 -0.67165,-0.652909 z m 4.44679,-1.080671 c 0.80251,-0.312175 1.76136,-0.273782 2.13077,0.08532 0.3694,0.359096 -0.2872,0.614512 -1.45911,0.567589 -1.29508,-0.05187 -1.55849,-0.307926 -0.67166,-0.652904 z m 24.66585,-5.089854 c 0,-0.233595 0.77638,-0.714328 1.72529,-1.068295 0.98933,-0.369045 1.43556,-0.187874 1.04609,0.424716 -0.65286,1.026859 -2.77138,1.518829 -2.77138,0.643579 z"
         style="fill:#222;stroke-width:1.09607" />
    </g>
  </g>
</svg>
